<svg width="270" height="100" viewBox="0 0 270 100" fill="none" xmlns="http://www.w3.org/2000/svg">
<g filter="url(#filter0_d_16_33)">
<rect x="10" y="3" width="250" height="80" rx="10" fill="#DAD873"/>
</g>
<path d="M51.248 34.32C53.024 34.32 54.576 34.664 55.904 35.352C57.248 36.024 58.28 37 59 38.28C59.736 39.544 60.104 41.024 60.104 42.72C60.104 44.416 59.736 45.888 59 47.136C58.28 48.384 57.248 49.344 55.904 50.016C54.576 50.672 53.024 51 51.248 51H45.8V34.32H51.248ZM51.248 48.768C53.2 48.768 54.696 48.24 55.736 47.184C56.776 46.128 57.296 44.64 57.296 42.72C57.296 40.784 56.776 39.272 55.736 38.184C54.696 37.096 53.2 36.552 51.248 36.552H48.536V48.768H51.248ZM68.5516 51.216C67.3036 51.216 66.1756 50.936 65.1676 50.376C64.1596 49.8 63.3676 49 62.7916 47.976C62.2156 46.936 61.9276 45.736 61.9276 44.376C61.9276 43.032 62.2236 41.84 62.8156 40.8C63.4076 39.76 64.2156 38.96 65.2396 38.4C66.2636 37.84 67.4076 37.56 68.6716 37.56C69.9356 37.56 71.0796 37.84 72.1036 38.4C73.1276 38.96 73.9356 39.76 74.5276 40.8C75.1196 41.84 75.4156 43.032 75.4156 44.376C75.4156 45.72 75.1116 46.912 74.5036 47.952C73.8956 48.992 73.0636 49.8 72.0076 50.376C70.9676 50.936 69.8156 51.216 68.5516 51.216ZM68.5516 48.84C69.2556 48.84 69.9116 48.672 70.5196 48.336C71.1436 48 71.6476 47.496 72.0316 46.824C72.4156 46.152 72.6076 45.336 72.6076 44.376C72.6076 43.416 72.4236 42.608 72.0556 41.952C71.6876 41.28 71.1996 40.776 70.5916 40.44C69.9836 40.104 69.3276 39.936 68.6236 39.936C67.9196 39.936 67.2636 40.104 66.6556 40.44C66.0636 40.776 65.5916 41.28 65.2396 41.952C64.8876 42.608 64.7116 43.416 64.7116 44.376C64.7116 45.8 65.0716 46.904 65.7916 47.688C66.5276 48.456 67.4476 48.84 68.5516 48.84ZM95.8803 37.776L91.7763 51H88.8963L86.2323 41.232L83.5683 51H80.6883L76.5603 37.776H79.3443L82.1043 48.408L84.9123 37.776H87.7683L90.4563 48.36L93.1923 37.776H95.8803ZM104.597 37.56C105.637 37.56 106.565 37.776 107.381 38.208C108.213 38.64 108.861 39.28 109.325 40.128C109.789 40.976 110.021 42 110.021 43.2V51H107.309V43.608C107.309 42.424 107.013 41.52 106.421 40.896C105.829 40.256 105.021 39.936 103.997 39.936C102.973 39.936 102.157 40.256 101.549 40.896C100.957 41.52 100.661 42.424 100.661 43.608V51H97.925V37.776H100.661V39.288C101.109 38.744 101.677 38.32 102.365 38.016C103.069 37.712 103.813 37.56 104.597 37.56ZM116.247 33.24V51H113.511V33.24H116.247ZM125.575 51.216C124.327 51.216 123.199 50.936 122.191 50.376C121.183 49.8 120.391 49 119.815 47.976C119.239 46.936 118.951 45.736 118.951 44.376C118.951 43.032 119.247 41.84 119.839 40.8C120.431 39.76 121.239 38.96 122.263 38.4C123.287 37.84 124.431 37.56 125.695 37.56C126.959 37.56 128.103 37.84 129.127 38.4C130.151 38.96 130.959 39.76 131.551 40.8C132.143 41.84 132.439 43.032 132.439 44.376C132.439 45.72 132.135 46.912 131.527 47.952C130.919 48.992 130.087 49.8 129.031 50.376C127.991 50.936 126.839 51.216 125.575 51.216ZM125.575 48.84C126.279 48.84 126.935 48.672 127.543 48.336C128.167 48 128.671 47.496 129.055 46.824C129.439 46.152 129.631 45.336 129.631 44.376C129.631 43.416 129.447 42.608 129.079 41.952C128.711 41.28 128.223 40.776 127.615 40.44C127.007 40.104 126.351 39.936 125.647 39.936C124.943 39.936 124.287 40.104 123.679 40.44C123.087 40.776 122.615 41.28 122.263 41.952C121.911 42.608 121.735 43.416 121.735 44.376C121.735 45.8 122.095 46.904 122.815 47.688C123.551 48.456 124.471 48.84 125.575 48.84ZM134.232 44.328C134.232 43 134.504 41.824 135.048 40.8C135.608 39.776 136.36 38.984 137.304 38.424C138.264 37.848 139.32 37.56 140.472 37.56C141.512 37.56 142.416 37.768 143.184 38.184C143.968 38.584 144.592 39.088 145.056 39.696V37.776H147.816V51H145.056V49.032C144.592 49.656 143.96 50.176 143.16 50.592C142.36 51.008 141.448 51.216 140.424 51.216C139.288 51.216 138.248 50.928 137.304 50.352C136.36 49.76 135.608 48.944 135.048 47.904C134.504 46.848 134.232 45.656 134.232 44.328ZM145.056 44.376C145.056 43.464 144.864 42.672 144.48 42C144.112 41.328 143.624 40.816 143.016 40.464C142.408 40.112 141.752 39.936 141.048 39.936C140.344 39.936 139.688 40.112 139.08 40.464C138.472 40.8 137.976 41.304 137.592 41.976C137.224 42.632 137.04 43.416 137.04 44.328C137.04 45.24 137.224 46.04 137.592 46.728C137.976 47.416 138.472 47.944 139.08 48.312C139.704 48.664 140.36 48.84 141.048 48.84C141.752 48.84 142.408 48.664 143.016 48.312C143.624 47.96 144.112 47.448 144.48 46.776C144.864 46.088 145.056 45.288 145.056 44.376ZM150.497 44.328C150.497 43 150.769 41.824 151.313 40.8C151.873 39.776 152.625 38.984 153.569 38.424C154.529 37.848 155.593 37.56 156.761 37.56C157.625 37.56 158.473 37.752 159.305 38.136C160.153 38.504 160.825 39 161.321 39.624V33.24H164.081V51H161.321V49.008C160.873 49.648 160.249 50.176 159.449 50.592C158.665 51.008 157.761 51.216 156.737 51.216C155.585 51.216 154.529 50.928 153.569 50.352C152.625 49.76 151.873 48.944 151.313 47.904C150.769 46.848 150.497 45.656 150.497 44.328ZM161.321 44.376C161.321 43.464 161.129 42.672 160.745 42C160.377 41.328 159.889 40.816 159.281 40.464C158.673 40.112 158.017 39.936 157.313 39.936C156.609 39.936 155.953 40.112 155.345 40.464C154.737 40.8 154.241 41.304 153.857 41.976C153.489 42.632 153.305 43.416 153.305 44.328C153.305 45.24 153.489 46.04 153.857 46.728C154.241 47.416 154.737 47.944 155.345 48.312C155.969 48.664 156.625 48.84 157.313 48.84C158.017 48.84 158.673 48.664 159.281 48.312C159.889 47.96 160.377 47.448 160.745 46.776C161.129 46.088 161.321 45.288 161.321 44.376ZM187.613 51H184.877L176.645 38.544V51H173.909V34.296H176.645L184.877 46.728V34.296H187.613V51ZM196.942 51.216C195.694 51.216 194.566 50.936 193.558 50.376C192.55 49.8 191.758 49 191.182 47.976C190.606 46.936 190.318 45.736 190.318 44.376C190.318 43.032 190.614 41.84 191.206 40.8C191.798 39.76 192.606 38.96 193.63 38.4C194.654 37.84 195.798 37.56 197.062 37.56C198.326 37.56 199.47 37.84 200.494 38.4C201.518 38.96 202.326 39.76 202.918 40.8C203.51 41.84 203.806 43.032 203.806 44.376C203.806 45.72 203.502 46.912 202.894 47.952C202.286 48.992 201.454 49.8 200.398 50.376C199.358 50.936 198.206 51.216 196.942 51.216ZM196.942 48.84C197.646 48.84 198.302 48.672 198.91 48.336C199.534 48 200.038 47.496 200.422 46.824C200.806 46.152 200.998 45.336 200.998 44.376C200.998 43.416 200.814 42.608 200.446 41.952C200.078 41.28 199.59 40.776 198.982 40.44C198.374 40.104 197.718 39.936 197.014 39.936C196.31 39.936 195.654 40.104 195.046 40.44C194.454 40.776 193.982 41.28 193.63 41.952C193.278 42.608 193.102 43.416 193.102 44.376C193.102 45.8 193.462 46.904 194.182 47.688C194.918 48.456 195.838 48.84 196.942 48.84ZM224.271 37.776L220.167 51H217.287L214.623 41.232L211.959 51H209.079L204.951 37.776H207.735L210.495 48.408L213.303 37.776H216.159L218.847 48.36L221.583 37.776H224.271Z" fill="#309975"/>
<defs>
<filter id="filter0_d_16_33" x="0" y="0" width="270" height="100" filterUnits="userSpaceOnUse" color-interpolation-filters="sRGB">
<feFlood flood-opacity="0" result="BackgroundImageFix"/>
<feColorMatrix in="SourceAlpha" type="matrix" values="0 0 0 0 0 0 0 0 0 0 0 0 0 0 0 0 0 0 127 0" result="hardAlpha"/>
<feOffset dy="7"/>
<feGaussianBlur stdDeviation="5"/>
<feComposite in2="hardAlpha" operator="out"/>
<feColorMatrix type="matrix" values="0 0 0 0 0 0 0 0 0 0 0 0 0 0 0 0 0 0 0.15 0"/>
<feBlend mode="normal" in2="BackgroundImageFix" result="effect1_dropShadow_16_33"/>
<feBlend mode="normal" in="SourceGraphic" in2="effect1_dropShadow_16_33" result="shape"/>
</filter>
</defs>
</svg>
