<svg width="200" height="70" viewBox="0 0 200 70" fill="none" xmlns="http://www.w3.org/2000/svg">
<rect width="200" height="70" rx="5" fill="#FFCA63"/>
<path d="M26.402 30.146V33.818H30.722V35.492H26.402V39.326H31.262V41H24.35V28.472H31.262V30.146H26.402ZM38.0375 35.978L41.2415 41H38.9195L36.7775 37.634L34.7615 41H32.6195L35.8235 36.122L32.6195 31.082H34.9415L37.0835 34.448L39.0995 31.082H41.2415L38.0375 35.978ZM42.0879 36.032C42.0879 35.012 42.2919 34.118 42.6999 33.35C43.1199 32.57 43.6959 31.97 44.4279 31.55C45.1599 31.13 45.9999 30.92 46.9479 30.92C48.1479 30.92 49.1379 31.208 49.9179 31.784C50.7099 32.348 51.2439 33.158 51.5199 34.214H49.3059C49.1259 33.722 48.8379 33.338 48.4419 33.062C48.0459 32.786 47.5479 32.648 46.9479 32.648C46.1079 32.648 45.4359 32.948 44.9319 33.548C44.4399 34.136 44.1939 34.964 44.1939 36.032C44.1939 37.1 44.4399 37.934 44.9319 38.534C45.4359 39.134 46.1079 39.434 46.9479 39.434C48.1359 39.434 48.9219 38.912 49.3059 37.868H51.5199C51.2319 38.876 50.6919 39.68 49.8999 40.28C49.1079 40.868 48.1239 41.162 46.9479 41.162C45.9999 41.162 45.1599 40.952 44.4279 40.532C43.6959 40.1 43.1199 39.5 42.6999 38.732C42.2919 37.952 42.0879 37.052 42.0879 36.032ZM58.6948 30.92C59.4508 30.92 60.1228 31.082 60.7108 31.406C61.3108 31.73 61.7788 32.21 62.1148 32.846C62.4628 33.482 62.6368 34.25 62.6368 35.15V41H60.6028V35.456C60.6028 34.568 60.3808 33.89 59.9368 33.422C59.4928 32.942 58.8868 32.702 58.1188 32.702C57.3508 32.702 56.7388 32.942 56.2828 33.422C55.8388 33.89 55.6168 34.568 55.6168 35.456V41H53.5648V27.68H55.6168V32.234C55.9648 31.814 56.4028 31.49 56.9308 31.262C57.4708 31.034 58.0588 30.92 58.6948 30.92ZM64.5703 35.996C64.5703 35 64.7743 34.118 65.1823 33.35C65.6023 32.582 66.1663 31.988 66.8743 31.568C67.5943 31.136 68.3863 30.92 69.2503 30.92C70.0303 30.92 70.7083 31.076 71.2843 31.388C71.8723 31.688 72.3403 32.066 72.6883 32.522V31.082H74.7583V41H72.6883V39.524C72.3403 39.992 71.8663 40.382 71.2663 40.694C70.6663 41.006 69.9823 41.162 69.2143 41.162C68.3623 41.162 67.5823 40.946 66.8743 40.514C66.1663 40.07 65.6023 39.458 65.1823 38.678C64.7743 37.886 64.5703 36.992 64.5703 35.996ZM72.6883 36.032C72.6883 35.348 72.5443 34.754 72.2563 34.25C71.9803 33.746 71.6143 33.362 71.1583 33.098C70.7023 32.834 70.2103 32.702 69.6823 32.702C69.1543 32.702 68.6623 32.834 68.2063 33.098C67.7503 33.35 67.3783 33.728 67.0903 34.232C66.8143 34.724 66.6763 35.312 66.6763 35.996C66.6763 36.68 66.8143 37.28 67.0903 37.796C67.3783 38.312 67.7503 38.708 68.2063 38.984C68.6743 39.248 69.1663 39.38 69.6823 39.38C70.2103 39.38 70.7023 39.248 71.1583 38.984C71.6143 38.72 71.9803 38.336 72.2563 37.832C72.5443 37.316 72.6883 36.716 72.6883 36.032ZM82.4575 30.92C83.2375 30.92 83.9335 31.082 84.5455 31.406C85.1695 31.73 85.6555 32.21 86.0035 32.846C86.3515 33.482 86.5255 34.25 86.5255 35.15V41H84.4915V35.456C84.4915 34.568 84.2695 33.89 83.8255 33.422C83.3815 32.942 82.7755 32.702 82.0075 32.702C81.2395 32.702 80.6275 32.942 80.1715 33.422C79.7275 33.89 79.5055 34.568 79.5055 35.456V41H77.4535V31.082H79.5055V32.216C79.8415 31.808 80.2675 31.49 80.7835 31.262C81.3115 31.034 81.8695 30.92 82.4575 30.92ZM93.139 30.92C93.907 30.92 94.585 31.076 95.173 31.388C95.773 31.688 96.241 32.066 96.577 32.522V31.082H98.647V41.162C98.647 42.074 98.455 42.884 98.071 43.592C97.687 44.312 97.129 44.876 96.397 45.284C95.677 45.692 94.813 45.896 93.805 45.896C92.461 45.896 91.345 45.578 90.457 44.942C89.569 44.318 89.065 43.466 88.945 42.386H90.979C91.135 42.902 91.465 43.316 91.969 43.628C92.485 43.952 93.097 44.114 93.805 44.114C94.633 44.114 95.299 43.862 95.803 43.358C96.319 42.854 96.577 42.122 96.577 41.162V39.506C96.229 39.974 95.755 40.37 95.155 40.694C94.567 41.006 93.895 41.162 93.139 41.162C92.275 41.162 91.483 40.946 90.763 40.514C90.055 40.07 89.491 39.458 89.071 38.678C88.663 37.886 88.459 36.992 88.459 35.996C88.459 35 88.663 34.118 89.071 33.35C89.491 32.582 90.055 31.988 90.763 31.568C91.483 31.136 92.275 30.92 93.139 30.92ZM96.577 36.032C96.577 35.348 96.433 34.754 96.145 34.25C95.869 33.746 95.503 33.362 95.047 33.098C94.591 32.834 94.099 32.702 93.571 32.702C93.043 32.702 92.551 32.834 92.095 33.098C91.639 33.35 91.267 33.728 90.979 34.232C90.703 34.724 90.565 35.312 90.565 35.996C90.565 36.68 90.703 37.28 90.979 37.796C91.267 38.312 91.639 38.708 92.095 38.984C92.563 39.248 93.055 39.38 93.571 39.38C94.099 39.38 94.591 39.248 95.047 38.984C95.503 38.72 95.869 38.336 96.145 37.832C96.433 37.316 96.577 36.716 96.577 36.032ZM110.432 35.798C110.432 36.17 110.408 36.506 110.36 36.806H102.782C102.842 37.598 103.136 38.234 103.664 38.714C104.192 39.194 104.84 39.434 105.608 39.434C106.712 39.434 107.492 38.972 107.948 38.048H110.162C109.862 38.96 109.316 39.71 108.524 40.298C107.744 40.874 106.772 41.162 105.608 41.162C104.66 41.162 103.808 40.952 103.052 40.532C102.308 40.1 101.72 39.5 101.288 38.732C100.868 37.952 100.658 37.052 100.658 36.032C100.658 35.012 100.862 34.118 101.27 33.35C101.69 32.57 102.272 31.97 103.016 31.55C103.772 31.13 104.636 30.92 105.608 30.92C106.544 30.92 107.378 31.124 108.11 31.532C108.842 31.94 109.412 32.516 109.82 33.26C110.228 33.992 110.432 34.838 110.432 35.798ZM108.29 35.15C108.278 34.394 108.008 33.788 107.48 33.332C106.952 32.876 106.298 32.648 105.518 32.648C104.81 32.648 104.204 32.876 103.7 33.332C103.196 33.776 102.896 34.382 102.8 35.15H108.29ZM130.303 28.49V41H128.251V32.432L124.435 41H123.013L119.179 32.432V41H117.127V28.49H119.341L123.733 38.3L128.107 28.49H130.303ZM137.302 41.162C136.366 41.162 135.52 40.952 134.764 40.532C134.008 40.1 133.414 39.5 132.982 38.732C132.55 37.952 132.334 37.052 132.334 36.032C132.334 35.024 132.556 34.13 133 33.35C133.444 32.57 134.05 31.97 134.818 31.55C135.586 31.13 136.444 30.92 137.392 30.92C138.34 30.92 139.198 31.13 139.966 31.55C140.734 31.97 141.34 32.57 141.784 33.35C142.228 34.13 142.45 35.024 142.45 36.032C142.45 37.04 142.222 37.934 141.766 38.714C141.31 39.494 140.686 40.1 139.894 40.532C139.114 40.952 138.25 41.162 137.302 41.162ZM137.302 39.38C137.83 39.38 138.322 39.254 138.778 39.002C139.246 38.75 139.624 38.372 139.912 37.868C140.2 37.364 140.344 36.752 140.344 36.032C140.344 35.312 140.206 34.706 139.93 34.214C139.654 33.71 139.288 33.332 138.832 33.08C138.376 32.828 137.884 32.702 137.356 32.702C136.828 32.702 136.336 32.828 135.88 33.08C135.436 33.332 135.082 33.71 134.818 34.214C134.554 34.706 134.422 35.312 134.422 36.032C134.422 37.1 134.692 37.928 135.232 38.516C135.784 39.092 136.474 39.38 137.302 39.38ZM149.483 30.92C150.263 30.92 150.959 31.082 151.571 31.406C152.195 31.73 152.681 32.21 153.029 32.846C153.377 33.482 153.551 34.25 153.551 35.15V41H151.517V35.456C151.517 34.568 151.295 33.89 150.851 33.422C150.407 32.942 149.801 32.702 149.033 32.702C148.265 32.702 147.653 32.942 147.197 33.422C146.753 33.89 146.531 34.568 146.531 35.456V41H144.479V31.082H146.531V32.216C146.867 31.808 147.293 31.49 147.809 31.262C148.337 31.034 148.895 30.92 149.483 30.92ZM165.258 35.798C165.258 36.17 165.234 36.506 165.186 36.806H157.608C157.668 37.598 157.962 38.234 158.49 38.714C159.018 39.194 159.666 39.434 160.434 39.434C161.538 39.434 162.318 38.972 162.774 38.048H164.988C164.688 38.96 164.142 39.71 163.35 40.298C162.57 40.874 161.598 41.162 160.434 41.162C159.486 41.162 158.634 40.952 157.878 40.532C157.134 40.1 156.546 39.5 156.114 38.732C155.694 37.952 155.484 37.052 155.484 36.032C155.484 35.012 155.688 34.118 156.096 33.35C156.516 32.57 157.098 31.97 157.842 31.55C158.598 31.13 159.462 30.92 160.434 30.92C161.37 30.92 162.204 31.124 162.936 31.532C163.668 31.94 164.238 32.516 164.646 33.26C165.054 33.992 165.258 34.838 165.258 35.798ZM163.116 35.15C163.104 34.394 162.834 33.788 162.306 33.332C161.778 32.876 161.124 32.648 160.344 32.648C159.636 32.648 159.03 32.876 158.526 33.332C158.022 33.776 157.722 34.382 157.626 35.15H163.116ZM176.206 31.082L170.122 45.662H167.998L170.014 40.838L166.108 31.082H168.394L171.184 38.642L174.082 31.082H176.206Z" fill="#20656F"/>
</svg>
