<svg width="304" height="304" viewBox="0 0 304 304" fill="none" xmlns="http://www.w3.org/2000/svg">
<path d="M111.928 52.5967L57.5763 45.0343C27.8618 71.1891 9.08745 109.448 9.08745 152.003C9.08745 194.558 27.8618 232.817 57.5763 258.971L111.928 251.409L137.989 152.003L111.928 52.5967Z" fill="#A0F6FA"/>
<path d="M246.434 45.0234L232.591 44.5979V259.407C232.591 259.407 246.434 258.981 246.423 258.97C276.148 232.816 294.912 194.557 294.912 152.002C294.912 109.447 276.148 71.1902 246.434 45.0234Z" fill="#25BBCC"/>
<path d="M232.591 55.7859L192.083 52.5977L166.011 152.004L192.083 251.41L232.591 248.222C250.402 222.839 261.285 189.043 261.285 152.004C261.285 114.964 250.402 81.1683 232.591 55.7859Z" fill="#50D1DD"/>
<path d="M192.083 74.9708H111.929C107.143 97.1988 104.363 123.645 104.363 152.003C104.363 180.361 107.143 206.807 111.929 229.035H192.083C196.869 206.807 199.637 180.361 199.637 152.003C199.637 123.645 196.869 97.1988 192.083 74.9708Z" fill="#78E3EC"/>
<path d="M57.5773 45.0353C73.0795 58.6828 91.574 69.0418 111.929 74.9708L152 9.37146C115.841 9.37146 82.7745 22.851 57.5773 45.0353Z" fill="#F0FEFF"/>
<path d="M153.412 9.38245L232.591 55.785C237.422 52.4844 242.04 48.8936 246.423 45.0343C221.562 23.1314 189.023 9.71847 153.412 9.38245Z" fill="#78E3EC"/>
<path d="M153.412 9.38239C152.941 9.37145 152.471 9.37146 152 9.37146L192.083 74.9708C206.688 70.7089 220.329 64.1864 232.591 55.7859C212.897 27.6955 184.719 9.89735 153.412 9.38239Z" fill="#A0F6FA"/>
<path d="M111.928 229.036C91.573 234.965 73.0785 245.324 57.5763 258.971C82.7735 281.155 115.84 294.635 151.999 294.635L111.928 229.036Z" fill="#F0FEFF"/>
<path d="M246.423 258.971C242.04 255.112 237.422 251.521 232.591 248.221L153.412 294.623C189.023 294.288 221.562 280.875 246.423 258.971Z" fill="#78E3EC"/>
<path d="M192.083 229.036L152 294.635C152.471 294.635 152.941 294.635 153.412 294.624C184.719 294.109 212.897 276.311 232.591 248.222C220.329 239.819 206.688 233.298 192.083 229.036Z" fill="#A0F6FA"/>
<path d="M152 9.37146C168.802 9.37146 183.597 35.5372 192.083 74.9708C179.361 78.6959 165.91 80.6871 152 80.6871C138.09 80.6871 124.639 78.6959 111.928 74.9708C120.414 35.5372 135.209 9.37146 152 9.37146Z" fill="#D0FBFD"/>
<path d="M192.083 229.036C183.598 268.469 168.802 294.635 152 294.635C135.209 294.635 120.414 268.469 111.928 229.036C124.639 225.311 138.09 223.319 152 223.319C165.91 223.319 179.361 225.311 192.083 229.036Z" fill="#D0FBFD"/>
<path d="M152.002 0.981934C68.5652 0.981934 0.683395 68.7306 0.683395 152.004C0.683395 235.277 68.5652 303.026 152.002 303.026C235.439 303.026 303.321 235.277 303.321 152.004C303.321 68.7306 235.44 0.981934 152.002 0.981934ZM286.238 143.614H207.959C207.534 121.292 205.414 99.8761 201.791 80.6484C217.74 75.0882 232.741 66.8607 246.134 56.2164C269.16 78.7595 284.117 109.478 286.238 143.614ZM198.171 239.894C210.651 244.458 222.451 250.87 233.162 258.98C217.979 270.483 200.286 278.84 181.056 283.082C185.716 275.795 189.937 266.571 193.646 255.466C195.289 250.547 196.794 245.335 198.171 239.894ZM177.696 250.159C168.81 276.766 158.596 286.246 152.002 286.246C145.408 286.246 135.195 276.765 126.308 250.159C124.725 245.419 123.275 240.384 121.956 235.11C131.742 232.866 141.816 231.71 152.002 231.71C162.189 231.71 172.262 232.865 182.048 235.11C180.729 240.385 179.279 245.42 177.696 250.159ZM110.358 255.466C114.068 266.57 118.288 275.794 122.948 283.082C103.72 278.84 86.0257 270.482 70.8442 258.98C81.5552 250.87 93.355 244.458 105.835 239.894C107.21 245.335 108.715 250.547 110.358 255.466ZM152.002 214.93C140.622 214.93 129.368 216.214 118.433 218.702C115.178 200.911 113.27 181.097 112.863 160.393H191.142C190.736 181.096 188.827 200.91 185.573 218.702C174.636 216.214 163.382 214.93 152.002 214.93ZM112.863 143.614C113.27 122.911 115.179 103.097 118.433 85.3059C129.369 87.7943 140.623 89.0777 152.002 89.0777C163.382 89.0777 174.636 87.7933 185.571 85.3059C188.826 103.097 190.734 122.91 191.14 143.614H112.863ZM105.833 64.1138C93.353 59.5497 81.5533 53.1375 70.8423 45.0273C86.0247 33.5261 103.718 25.1674 122.946 20.9254C118.286 28.2124 114.065 37.4371 110.356 48.5416C108.715 53.4606 107.21 58.6729 105.833 64.1138ZM126.309 53.8483C135.195 27.2412 145.409 17.762 152.003 17.762C158.597 17.762 168.811 27.2422 177.697 53.8483C179.28 58.5884 180.73 63.6237 182.049 68.8977C172.263 71.1414 162.189 72.2976 152.003 72.2976C141.817 72.2976 131.742 71.1424 121.957 68.8977C123.276 63.6227 124.726 58.5874 126.309 53.8483ZM193.647 48.5416C189.937 37.4381 185.717 28.2134 181.057 20.9254C200.285 25.1674 217.979 33.5251 233.161 45.0273C222.45 53.1375 210.65 59.5497 198.17 64.1138C196.794 58.6729 195.289 53.4606 193.647 48.5416ZM57.8711 56.2164C71.2646 66.8607 86.2648 75.0901 102.214 80.6484C98.5914 99.8751 96.4707 121.292 96.0464 143.614H17.7664C19.8871 109.477 34.8434 78.7595 57.8711 56.2164ZM17.7664 160.394H96.0454C96.4698 182.717 98.5894 204.133 102.212 223.36C86.2628 228.92 71.2616 237.148 57.8691 247.792C34.8434 225.248 19.8871 194.53 17.7664 160.394ZM246.135 247.791C232.742 237.147 217.741 228.917 201.792 223.359C205.415 204.133 207.535 182.717 207.959 160.394H286.238C284.117 194.529 269.161 225.248 246.135 247.791Z" fill="#2F5E88"/>
</svg>
