<svg width="150" height="50" viewBox="0 0 150 50" fill="none" xmlns="http://www.w3.org/2000/svg">
<rect width="150" height="50" rx="5" fill="#DAD873"/>
<path d="M46.472 31.126C45.632 31.126 44.876 30.982 44.204 30.694C43.532 30.394 43.004 29.974 42.62 29.434C42.236 28.894 42.044 28.264 42.044 27.544H44.24C44.288 28.084 44.498 28.528 44.87 28.876C45.254 29.224 45.788 29.398 46.472 29.398C47.18 29.398 47.732 29.23 48.128 28.894C48.524 28.546 48.722 28.102 48.722 27.562C48.722 27.142 48.596 26.8 48.344 26.536C48.104 26.272 47.798 26.068 47.426 25.924C47.066 25.78 46.562 25.624 45.914 25.456C45.098 25.24 44.432 25.024 43.916 24.808C43.412 24.58 42.98 24.232 42.62 23.764C42.26 23.296 42.08 22.672 42.08 21.892C42.08 21.172 42.26 20.542 42.62 20.002C42.98 19.462 43.484 19.048 44.132 18.76C44.78 18.472 45.53 18.328 46.382 18.328C47.594 18.328 48.584 18.634 49.352 19.246C50.132 19.846 50.564 20.674 50.648 21.73H48.38C48.344 21.274 48.128 20.884 47.732 20.56C47.336 20.236 46.814 20.074 46.166 20.074C45.578 20.074 45.098 20.224 44.726 20.524C44.354 20.824 44.168 21.256 44.168 21.82C44.168 22.204 44.282 22.522 44.51 22.774C44.75 23.014 45.05 23.206 45.41 23.35C45.77 23.494 46.262 23.65 46.886 23.818C47.714 24.046 48.386 24.274 48.902 24.502C49.43 24.73 49.874 25.084 50.234 25.564C50.606 26.032 50.792 26.662 50.792 27.454C50.792 28.09 50.618 28.69 50.27 29.254C49.934 29.818 49.436 30.274 48.776 30.622C48.128 30.958 47.36 31.126 46.472 31.126ZM54.2573 19.768C53.8853 19.768 53.5733 19.642 53.3213 19.39C53.0693 19.138 52.9433 18.826 52.9433 18.454C52.9433 18.082 53.0693 17.77 53.3213 17.518C53.5733 17.266 53.8853 17.14 54.2573 17.14C54.6173 17.14 54.9233 17.266 55.1753 17.518C55.4273 17.77 55.5533 18.082 55.5533 18.454C55.5533 18.826 55.4273 19.138 55.1753 19.39C54.9233 19.642 54.6173 19.768 54.2573 19.768ZM55.2653 21.082V31H53.2133V21.082H55.2653ZM61.9554 20.92C62.7234 20.92 63.4014 21.076 63.9894 21.388C64.5894 21.688 65.0574 22.066 65.3934 22.522V21.082H67.4634V31.162C67.4634 32.074 67.2714 32.884 66.8874 33.592C66.5034 34.312 65.9454 34.876 65.2134 35.284C64.4934 35.692 63.6294 35.896 62.6214 35.896C61.2774 35.896 60.1614 35.578 59.2734 34.942C58.3854 34.318 57.8814 33.466 57.7614 32.386H59.7954C59.9514 32.902 60.2814 33.316 60.7854 33.628C61.3014 33.952 61.9134 34.114 62.6214 34.114C63.4494 34.114 64.1154 33.862 64.6194 33.358C65.1354 32.854 65.3934 32.122 65.3934 31.162V29.506C65.0454 29.974 64.5714 30.37 63.9714 30.694C63.3834 31.006 62.7114 31.162 61.9554 31.162C61.0914 31.162 60.2994 30.946 59.5794 30.514C58.8714 30.07 58.3074 29.458 57.8874 28.678C57.4794 27.886 57.2754 26.992 57.2754 25.996C57.2754 25 57.4794 24.118 57.8874 23.35C58.3074 22.582 58.8714 21.988 59.5794 21.568C60.2994 21.136 61.0914 20.92 61.9554 20.92ZM65.3934 26.032C65.3934 25.348 65.2494 24.754 64.9614 24.25C64.6854 23.746 64.3194 23.362 63.8634 23.098C63.4074 22.834 62.9154 22.702 62.3874 22.702C61.8594 22.702 61.3674 22.834 60.9114 23.098C60.4554 23.35 60.0834 23.728 59.7954 24.232C59.5194 24.724 59.3814 25.312 59.3814 25.996C59.3814 26.68 59.5194 27.28 59.7954 27.796C60.0834 28.312 60.4554 28.708 60.9114 28.984C61.3794 29.248 61.8714 29.38 62.3874 29.38C62.9154 29.38 63.4074 29.248 63.8634 28.984C64.3194 28.72 64.6854 28.336 64.9614 27.832C65.2494 27.316 65.3934 26.716 65.3934 26.032ZM75.1626 20.92C75.9426 20.92 76.6386 21.082 77.2506 21.406C77.8746 21.73 78.3606 22.21 78.7086 22.846C79.0566 23.482 79.2306 24.25 79.2306 25.15V31H77.1966V25.456C77.1966 24.568 76.9746 23.89 76.5306 23.422C76.0866 22.942 75.4806 22.702 74.7126 22.702C73.9446 22.702 73.3326 22.942 72.8766 23.422C72.4326 23.89 72.2106 24.568 72.2106 25.456V31H70.1586V21.082H72.2106V22.216C72.5466 21.808 72.9726 21.49 73.4886 21.262C74.0166 21.034 74.5746 20.92 75.1626 20.92ZM88.5578 18.49V26.464C88.5578 27.412 88.8038 28.126 89.2958 28.606C89.7998 29.086 90.4958 29.326 91.3838 29.326C92.2838 29.326 92.9798 29.086 93.4718 28.606C93.9758 28.126 94.2278 27.412 94.2278 26.464V18.49H96.2798V26.428C96.2798 27.448 96.0578 28.312 95.6138 29.02C95.1698 29.728 94.5758 30.256 93.8318 30.604C93.0878 30.952 92.2658 31.126 91.3658 31.126C90.4658 31.126 89.6438 30.952 88.8998 30.604C88.1678 30.256 87.5858 29.728 87.1538 29.02C86.7218 28.312 86.5058 27.448 86.5058 26.428V18.49H88.5578ZM101.004 22.54C101.352 22.084 101.826 21.7 102.426 21.388C103.026 21.076 103.704 20.92 104.46 20.92C105.324 20.92 106.11 21.136 106.818 21.568C107.538 21.988 108.102 22.582 108.51 23.35C108.918 24.118 109.122 25 109.122 25.996C109.122 26.992 108.918 27.886 108.51 28.678C108.102 29.458 107.538 30.07 106.818 30.514C106.11 30.946 105.324 31.162 104.46 31.162C103.704 31.162 103.032 31.012 102.444 30.712C101.856 30.4 101.376 30.016 101.004 29.56V35.716H98.9516V21.082H101.004V22.54ZM107.034 25.996C107.034 25.312 106.89 24.724 106.602 24.232C106.326 23.728 105.954 23.35 105.486 23.098C105.03 22.834 104.538 22.702 104.01 22.702C103.494 22.702 103.002 22.834 102.534 23.098C102.078 23.362 101.706 23.746 101.418 24.25C101.142 24.754 101.004 25.348 101.004 26.032C101.004 26.716 101.142 27.316 101.418 27.832C101.706 28.336 102.078 28.72 102.534 28.984C103.002 29.248 103.494 29.38 104.01 29.38C104.538 29.38 105.03 29.248 105.486 28.984C105.954 28.708 106.326 28.312 106.602 27.796C106.89 27.28 107.034 26.68 107.034 25.996Z" fill="#309975"/>
</svg>
